# xmcd CD database file
#
# Track frame offsets:
#	150
#	16868
#	31186
#	46037
#	61188
#	71601
#	86106
#	103847
#	119931
#	135879
#	150453
#	170598
#
# Disc length: 2406 seconds
#
# Revision: 0
# Processed by: cddbd v1.4PL0 Copyright (c) Steve Scherf et al.
# Submitted via: Feurio! 1.66 - http://www.feurio.com
#
DISCID=9609640c
DTITLE=Chicken Train - Wheels -1995
DYEAR=1995
DGENRE=CD -Kiste -Keller
TTITLE0=Wheels
TTITLE1=Je Suis Tres Contendre
TTITLE2=The Mindight Special
TTITLE3=I Crossed That Line
TTITLE4=The Foggy Mountain Top
TTITLE5=In The Middle Of Nowhere
TTITLE6=Frightful Day
TTITLE7=So Many Miles
TTITLE8=Walking The Floor Over You
TTITLE9=Watermelon Crawl
TTITLE10=Born To Lose
TTITLE11=Good And Country
EXTD=Erscheinungsdatum: 30. September 1995 \r\nlabel: Obermain M (Town Music) 
EXTD=\r\n
EXTT0=
EXTT1=
EXTT2=
EXTT3=
EXTT4=
EXTT5=
EXTT6=
EXTT7=
EXTT8=
EXTT9=
EXTT10=
EXTT11=
PLAYORDER=
